# xmcd CD database file
#
# Track frame offsets:
#	150
#	12952
#	25660
#	38463
#	51671
#	64839
#	77867
#	90968
#	104175
#	117670
#	133489
#	146833
#	160283
#	173784
#	187423
#	201108
#	214696
#
# Disc length: 3044 seconds
#
# Revision: 0
# Processed by: cddbd v1.5.1PL0 Copyright (c) Steve Scherf et al.
# Submitted via: CDex 1.51
#
DISCID=030be211
DTITLE=Sidney Bechet - The Legends of Jazz
DYEAR=1900
DGENRE=Jazz
TTITLE0=High Society
TTITLE1=Stompy Jones
TTITLE2=Jerry Roll Blues
TTITLE3=Shake It And Break It
TTITLE4=Bechet´s Steady Rider
TTITLE5=Coal Cart Blues
TTITLE6=Groovin´ The Mirror
TTITLE7=Maple Leaf Rag
TTITLE8=Kansas City Man Blues
TTITLE9=Nobody Knows The Way I Feel Dis Mornin´
TTITLE10=Saturday Night Blues
TTITLE11=Georgia Cabin
TTITLE12=12th Street Rag
TTITLE13=Wild Cat Blues
TTITLE14=Cake Walking Babies From Home
TTITLE15=Egyptian Fantasy
TTITLE16=Weary Blues
EXTD=
EXTT0=
EXTT1=
EXTT2=
EXTT3=
EXTT4=
EXTT5=
EXTT6=
EXTT7=
EXTT8=
EXTT9=
EXTT10=
EXTT11=
EXTT12=
EXTT13=
EXTT14=
EXTT15=
EXTT16=
PLAYORDER=
